<svg id="Layer_1" data-name="Layer 1" xmlns="http://www.w3.org/2000/svg" width="2498.4" height="619.2" viewBox="0 0 2498.4 619.2">
  <title>tulip_cycle</title>
  <path id="_01" data-name="01" d="M1351,492.7a17.3,17.3,0,0,0-9-3.8c-5.7-.7-19.9-1.7-20.4-5.5s-13.3-18.1-2.8-33S1337,425,1339.4,420s11.4-11.2,11.6-18.3,4.3-3.1,5.2-1.2,3.3,7.4,8.6,10.5,22.1,15.2,24.9,20.2,15.2,19.9,11.6,31.8-6.2,16.4-9,19.2-10.2,2.8-12.1,5.7-5.2,3.6-9.5,4.8S1351,492.7,1351,492.7Z" fill="#ef4423"/>
  <path id="_01-2" data-name="01" d="M1563.5,492.7a17.3,17.3,0,0,0-9-3.8c-5.7-.7-20-1.7-20.4-5.5s-13.3-18.1-2.9-33,18.3-25.4,20.7-30.4,11.4-11.2,11.6-18.3,4.3-3.1,5.2-1.2,3.3,7.4,8.5,10.5,22.1,15.2,24.9,20.2,15.2,19.9,11.6,31.8-6.2,16.4-9,19.2-10.2,2.8-12.1,5.7-5.2,3.6-9.5,4.8S1563.5,492.7,1563.5,492.7Z" fill="#ef4423"/>
  <path id="_01-3" data-name="01" d="M1783.5,492.7a17.3,17.3,0,0,0-9-3.8c-5.7-.7-20-1.7-20.4-5.5s-13.3-18.1-2.9-33,18.3-25.4,20.7-30.4,11.4-11.2,11.6-18.3,4.3-3.1,5.2-1.2,3.3,7.4,8.5,10.5,22.1,15.2,24.9,20.2,15.2,19.9,11.6,31.8-6.2,16.4-9,19.2-10.2,2.8-12.1,5.7-5.2,3.6-9.5,4.8S1783.5,492.7,1783.5,492.7Z" fill="#ef4423"/>
  <path id="_01-4" data-name="01" d="M1999,492.7a17.3,17.3,0,0,0-9-3.8c-5.7-.7-20-1.7-20.4-5.5s-13.3-18.1-2.9-33S1985,425,1987.3,420s11.4-11.2,11.6-18.3,4.3-3.1,5.2-1.2,3.3,7.4,8.5,10.5,22.1,15.2,24.9,20.2,15.2,19.9,11.6,31.8-6.2,16.4-9,19.2-10.2,2.8-12.1,5.7-5.2,3.6-9.5,4.8S1999,492.7,1999,492.7Z" fill="#ef4423"/>
  <path id="_01-5" data-name="01" d="M2215,492.7a17.3,17.3,0,0,0-9-3.8c-5.7-.7-20-1.7-20.4-5.5s-13.3-18.1-2.8-33S2201,425,2203.3,420s11.4-11.2,11.6-18.3,4.3-3.1,5.2-1.2,3.3,7.4,8.5,10.5,22.1,15.2,24.9,20.2,15.2,19.9,11.6,31.8-6.2,16.4-9,19.2-10.2,2.8-12.1,5.7-5.2,3.6-9.5,4.8S2215,492.7,2215,492.7Z" fill="#ef4423"/>
  <path id="_01-6" data-name="01" d="M2431.5,492.7a17.3,17.3,0,0,0-9-3.8c-5.7-.7-19.9-1.7-20.4-5.5s-13.3-18.1-2.8-33,18.3-25.4,20.7-30.4,11.4-11.2,11.6-18.3,4.3-3.1,5.2-1.2,3.3,7.4,8.6,10.5,22.1,15.2,24.9,20.2,15.2,19.9,11.6,31.8-6.2,16.4-9,19.2-10.2,2.8-12.1,5.7-5.2,3.6-9.5,4.8S2431.5,492.7,2431.5,492.7Z" fill="#ef4423"/>
  <g id="_02" data-name="02">
    <path d="M253.2,414.3s11.4,13.8,14.3,15.2,7.6-.5,10.4-3.6,8.1-8.3,8.1-8.3,23.8,21.1,25.4,25.6,6.4,10.9,6.4,17.1-1,19.2-7.4,23.8-19,5.6-20.7,9.1-3.8,5.6-9,7.8-15.4,3.1-18.1,3.1-4.5-5-14.2-9-15.2-5.2-18.5-17.3-4.7-21.6,0-29.4,16.2-18.5,18.1-22.6S253.2,414.3,253.2,414.3Z" fill="#ef4423"/>
    <path d="M270.3,346.6s14.7,46.6,17.1,82.6-35.4-4.5-35.4-4.5S255.6,367.3,270.3,346.6Z" fill="none" stroke="#ed2224" stroke-miterlimit="10"/>
  </g>
  <g id="_03" data-name="03">
    <path d="M473.3,416.4s-1.2,10-5,14.3-16.4,16.9-17.6,22.6-3.1,18.1-2.1,22.3,7.1,9.7,13.5,13.1,15.2,11.4,24,11.4,19.5-2.9,22.8-4,10.7-7.6,13.8-10.9,9-12.3,7.8-18.1-5.7-18.5-10.7-24.9-13.3-14-16.9-18.5-7.6-9.3-7.6-9.3-3.2,4.8-5.9,6.9-3.2,4.3-7,2.6S473.3,416.4,473.3,416.4Z" fill="#ef4423"/>
    <path d="M363.7,162.3s8.9-3.5,13.6,1.9,57.6,114,61.4,119.4,16.5,27.2,19.6,32.3,14.6,24.4,15.8,41.8,1.9,42.8,1.3,49.1l-2.2,21.8,23.8,2.5s-5.1-19.3-6-25.7,2.8-31.7,2.8-37.4-1.3-17.1-1.3-21.5,6.6-5.7,8.6-9.2,1.6-12,4.4-19.3,5.7-5.4,7.9-13,6.3-24.1,5.7-29.4,3.2-16.8,3.2-23.1,1.3-22.5,0-26-7,10.4-7,10.4-6-4.1-5.4-9.5.6-5.4-1.6-11.7-3.5-14.6-5.1-22.8-6-5.1-6.3-3.2,2.2,7.6-1.6,13.9-6.5,7-5.9,15.8,1.2,13.9-1.3,17.7-5.1,7.3-5.7,12.4-1.6,9.5-4.1,12-7.9-5.7-8.9-8.9,1.9-14.2-5.4-17.4-13.9-4.7-13.6-12.4,0-21.2-4.1-23.1-10.4,1.3-14.6-11.4-2.5-17.4-9.8-19.6-13.6-8.6-19.6-11.7-13.9-6.3-21.2-4.4S363.7,162.3,363.7,162.3Z" fill="none" stroke="#ef4423" stroke-miterlimit="10" stroke-width="0.5"/>
    <path d="M477.1,262.2s3.8,9.6,1.7,15.3-1.3,15,.7,18.3S487,308,487,308" fill="none" stroke="#ef4423" stroke-miterlimit="10" stroke-width="0.5"/>
    <path d="M493,344.9s-6.6-3.5-7.6-8.2-3.8-14.5-1.9-19.7,7.1-17.3,9.5-22.8,13.3-29.9,14.7-33.5,7.7-23.6,7.7-23.6" fill="none" stroke="#ef4423" stroke-miterlimit="10" stroke-width="0.5"/>
    <path d="M478.8,294.6a69.6,69.6,0,0,0,4.5-8.7c2.3-5.1,3.6-9.4,4.8-10.2s5.9,1.3,7,4.9a49.3,49.3,0,0,1,1.4,5.5" fill="none" stroke="#ef4423" stroke-miterlimit="10" stroke-width="0.5"/>
  </g>
  <g id="_04" data-name="04">
    <path d="M690.3,416.4s-1.2,10-5,14.3-16.4,16.9-17.6,22.6-3.1,18.1-2.1,22.3,7.1,9.7,13.5,13.1,15.2,11.4,24,11.4,19.5-2.9,22.8-4,10.7-7.6,13.8-10.9,9-12.3,7.8-18.1-5.7-18.5-10.7-24.9-13.3-14-16.9-18.5-7.6-9.3-7.6-9.3-3.2,4.8-5.9,6.9-3.2,4.3-7,2.6S690.3,416.4,690.3,416.4Z" fill="#ef4423"/>
    <path d="M708.2,419.6s.7-22.9-.5-29,1.2-32.3,2.6-36.6,9-31.8,11.4-35.2,20.9-34.2,23-38,19-25.4,22.8-33.5,9.5-17.8,6.4-20-8.8,2.6-12.6,5.5-8.6,6.7-18.1,15.9-5.5,3.8-10.4,15.7-4,10.9-8.8,15.7-8.8,10.4-10.2,7.6.9-14,.5-17.3,6.2-26.8,6.4-33.3,5.2-13.5,8.6-20.8,5.5-19.7,10.2-28.5,11.2-16.9,8.2-16.4-2,.5-10.3,6.9-5.2,6.4-9.7,13.1-7.8,9.3-10.2,12.3-9.3,16.4-17.1,16.2-9-8.1-15-13.1-9.3-12.6-14-18.1-9.5-5.5-16.9-7.1-10.5-6.6-14-8.3-6.9-2.6-1.9,10.9,9,9.5,12.6,18.8,3.1,14.3,5,18.8,5,5.5,5.7,10.7,1.7,8.8,7.1,16.2,13.8,23.3,17.8,27,17.8,35.9,14,43.5a106.5,106.5,0,0,0-9,25.8c-2.4,10.6,4.8,15,6.2,20.7s0,20.4,0,25.9,1.6,32.3,1.6,32.3" fill="none" stroke="#ed2224" stroke-miterlimit="10" stroke-width="0.5"/>
    <path d="M667.1,245.8c.4.7,14.5,10.4,16.1,11.2s7.6,6.3,10.1,9.5a91.5,91.5,0,0,0,6.8,7.6c3.3,3.5,2.8,6.6,5.4,11s4.5,6.7,5.7,9.5a51.1,51.1,0,0,1,2.4,7.9" fill="none" stroke="#ed2224" stroke-miterlimit="10" stroke-width="0.5"/>
    <path d="M701.5,314.4c0-.5.9-7.6,5-8.8s8.9-3.8,11.1-6,3-6.3,10.4-12.8,7.3-2.3,11.1-11.2,3.5-17.8,7.8-21.2,9.3-7.4,12.7-11.2,10-11.7,10.9-12.5l3.6-3.2" fill="none" stroke="#ed2224" stroke-miterlimit="10" stroke-width="0.5"/>
    <path d="M693.3,266.5s.4-5.7.5-11.2-2.6-5.1,1-10.7,3.7-6.2,5.2-12.3a92.4,92.4,0,0,0,2.1-12.6" fill="none" stroke="#ed2224" stroke-miterlimit="10" stroke-width="0.5"/>
    <path d="M696.2,131.9s-.5-6.7-.3-11.9,4-8.5,6.3-11.1S712.8,95,713.6,94.2s5.9-1.1,6.8,4.6,2.8,10.1,3.3,20.6-6.6,25.5-11.2,32-13,6.7-17.6,4.4-12.8-8.4-18.4-15.7-3.8-42.3-3.8-42.3c3,2.2,6,3.2,10.8,8.7s11.2,13.9,11.2,13.9" fill="none" stroke="#ed2224" stroke-miterlimit="10" stroke-width="0.5"/>
    <path d="M683.5,106.6s3.3-8.1,6-11.4,3-5.5,4.9-5.4,9.1,5.2,11.1,7.6a36.4,36.4,0,0,0,3,3.4" fill="none" stroke="#ed2224" stroke-miterlimit="10" stroke-width="0.5"/>
    <path d="M696,156.3s3.2,23.5,3.3,26.5,1,30.1,1,32.9.1,4.1.1,4.1" fill="none" stroke="#ed2224" stroke-miterlimit="10" stroke-width="0.5"/>
    <path d="M699.2,156.3s2.1,11.2,2.9,15,1.7,32.8,1.7,33.4v14.3" fill="none" stroke="#ed2224" stroke-miterlimit="10" stroke-width="0.5"/>
  </g>
  <g id="_04-2" data-name="04">
    <path d="M903.3,416.4s-1.2,10-5,14.3-16.4,16.9-17.6,22.6-3.1,18.1-2.1,22.3,7.1,9.7,13.5,13.1,15.2,11.4,24,11.4,19.5-2.9,22.8-4,10.7-7.6,13.8-10.9,9-12.3,7.8-18.1-5.7-18.5-10.7-24.9-13.3-14-16.9-18.5-7.6-9.3-7.6-9.3-3.2,4.8-5.9,6.9-3.2,4.3-7,2.6S903.3,416.4,903.3,416.4Z" fill="#ef4423"/>
    <path d="M921.2,419.6s.7-22.9-.5-29,1.2-32.3,2.6-36.6,9-31.8,11.4-35.2,20.9-34.2,23-38,19-25.4,22.8-33.5,9.5-17.8,6.4-20-8.8,2.6-12.6,5.5-8.6,6.7-18.1,15.9-5.5,3.8-10.4,15.7-4,10.9-8.8,15.7-8.8,10.4-10.2,7.6.9-14,.5-17.3,6.2-26.8,6.4-33.3,5.2-13.5,8.6-20.8,5.5-19.7,10.2-28.5,11.2-16.9,8.2-16.4-2,.5-10.3,6.9-5.2,6.4-9.7,13.1-7.8,9.3-10.2,12.3-9.3,16.4-17.1,16.2-9-8.1-15-13.1-9.3-12.6-14-18.1-9.5-5.5-16.9-7.1-10.5-6.6-14-8.3-6.9-2.6-1.9,10.9,9,9.5,12.6,18.8,3.1,14.3,5,18.8,5,5.5,5.7,10.7,1.7,8.8,7.1,16.2,13.8,23.3,17.8,27,17.8,35.9,14,43.5a106.5,106.5,0,0,0-9,25.8c-2.4,10.6,4.8,15,6.2,20.7s0,20.4,0,25.9,1.6,32.3,1.6,32.3" fill="none" stroke="#ed2224" stroke-miterlimit="10" stroke-width="0.5"/>
    <path d="M880.1,245.8c.4.7,14.5,10.4,16.1,11.2s7.6,6.3,10.1,9.5a91.5,91.5,0,0,0,6.8,7.6c3.3,3.5,2.8,6.6,5.4,11s4.5,6.7,5.7,9.5a51.1,51.1,0,0,1,2.4,7.9" fill="none" stroke="#ed2224" stroke-miterlimit="10" stroke-width="0.5"/>
    <path d="M914.5,314.4c0-.5.9-7.6,5-8.8s8.9-3.8,11.1-6,3-6.3,10.4-12.8,7.3-2.3,11.1-11.2,3.5-17.8,7.8-21.2,9.3-7.4,12.7-11.2,10-11.7,10.9-12.5l3.6-3.2" fill="none" stroke="#ed2224" stroke-miterlimit="10" stroke-width="0.5"/>
    <path d="M906.3,266.5s.4-5.7.5-11.2-2.6-5.1.9-10.7,3.7-6.2,5.2-12.3a92.4,92.4,0,0,0,2.1-12.6" fill="none" stroke="#ed2224" stroke-miterlimit="10" stroke-width="0.5"/>
    <path d="M909.2,131.9s-.5-6.7-.3-11.9,4-8.5,6.3-11.1S925.8,95,926.6,94.2s5.9-1.1,6.8,4.6,2.9,10.1,3.3,20.6-6.6,25.5-11.2,32-13,6.7-17.6,4.4-12.8-8.4-18.4-15.7-3.8-42.3-3.8-42.3c3,2.2,6,3.2,10.8,8.7s11.2,13.9,11.2,13.9" fill="none" stroke="#ed2224" stroke-miterlimit="10" stroke-width="0.5"/>
    <path d="M896.5,106.6s3.3-8.1,6-11.4,3-5.5,4.9-5.4,9.1,5.2,11.1,7.6a36.4,36.4,0,0,0,3,3.4" fill="none" stroke="#ed2224" stroke-miterlimit="10" stroke-width="0.5"/>
    <path d="M909,156.3s3.2,23.5,3.3,26.5,1,30.1,1,32.9.1,4.1.1,4.1" fill="none" stroke="#ed2224" stroke-miterlimit="10" stroke-width="0.5"/>
    <path d="M912.2,156.3s2.1,11.2,2.9,15,1.7,32.8,1.7,33.4v14.3" fill="none" stroke="#ed2224" stroke-miterlimit="10" stroke-width="0.5"/>
  </g>
  <g id="_05" data-name="05">
    <path d="M1143.3,317.1a106.5,106.5,0,0,0-9,25.8c-2.4,10.6,4.8,15,6.2,20.7s0,20.4,0,25.9,3.5,71.9,3.5,71.9" fill="none" stroke="#ed2224" stroke-miterlimit="10" stroke-width="0.5"/>
    <path d="M1150.6,455.6s.8-60.8-.4-66.9,1.2-32.3,2.6-36.6,9-31.8,11.4-35.1" fill="none" stroke="#ed2224" stroke-miterlimit="10" stroke-width="0.5"/>
    <path d="M886.4,321.9a31,31,0,0,0,13.9,13c9.6,4.3,39.4,2.9,41.3,0s11.5-9.6,20.7-7.2,14.4,11.7,33.1,9.9,27.4-3.2,41.8-5.1,30.7-6.7,42.8-4.8,20.2,7.2,27.4,5.3,20.2-14.4,32.7-15.9,1.8-12.4,1.8-12.4-19.8-7.6-22-8.6-17.7,4-19.8,5-17.3,13.1-25.6,15.8-40,6.2-46.8,7.3-15.5,2.9-19.8,2.9-25.2.4-35.3-1.8-18.7-5.4-21.3-5.4-11.9,6.5-20.5,7.9-22.7,4.3-29.5,2.5S886.4,321.9,886.4,321.9Z" fill="none" stroke="#ed2224" stroke-miterlimit="10" stroke-width="0.5"/>
    <path d="M1146.8,313.3s19.7-16.6,28.6-19,15.6-5.3,23.1-1.9,15.4,9.6,21.4,15.4,18.3,13.9,24,14.9,50.9.2,59.1,0,26.9,1,35.3-1.7,25.7-1.9,30.3-7.7,8.9-11.3,9.8-11.5,0,10.8,0,10.8-10.1,14.7-15.6,16.3-58.6,2.6-58.6,2.6h-87.2c-1.9,0-13.7-3.4-14.7-5.5s.7-9.1-10.1-10.1a269.2,269.2,0,0,0-31-.2c-1.4.2-9.8.5-13.2,1.2S1146.8,313.3,1146.8,313.3Z" fill="none" stroke="#ed2224" stroke-miterlimit="10" stroke-width="0.5"/>
    <path d="M1119.9,296.1s-11.8-5.9-23.1-7.3-8.9,2.2-15.1,4.3-8.2,13.9-13.9,21.9-18.3,5-27.1,1.9-12.5-17.8-12.5-17.8,1.2,10.3,1.9,15.1,8.7,8.5,8.7,8.5" fill="none" stroke="#ed2224" stroke-miterlimit="10" stroke-width="0.5"/>
    <path d="M1092,287.8s9.8-7.7,14.2-10.1,15.6-10.3,19.9-9.6,18,16.6,21.1,22.7a154.6,154.6,0,0,1,6.2,14.7" fill="none" stroke="#ed2224" stroke-miterlimit="10" stroke-width="0.5"/>
    <path d="M1110.5,446.3s-5.2,5.1-4.9,9,.3,18.5,2.4,22.3,8.6,13.5,11.8,14.7,20.9,7.1,28.7,6,20.3-3.5,23-6.5,8.2-8.2,10.3-16,2.5-13.6,1.7-16-4.4-1.9-4.9-1.6-4.6,7.4-6.5,10-5.9,7.3-8.2,10-5.4,7-10.6,7.1-12.5-.3-15.5-2.2-5.9-2.1-9.8-6.8-9.3-10.4-10.5-12.5-3-8.1-4.1-11.2A48.5,48.5,0,0,0,1110.5,446.3Z" fill="#ef4423"/>
    <path d="M1133.2,480.9s3.1-3.7,4.6-6.3,4.1-9.7,4.4-15.7-3-13.9-4.6-17.4-10.5-16.8-10.5-16.8-15.2,15.8-15.1,24.9" fill="none" stroke="#ed2224" stroke-miterlimit="10" stroke-width="0.5"/>
    <path d="M1163,479.2s1-9.9,0-14.2-1.9-12.7-2.9-12.2-13.9,1.8-19,13.2" fill="none" stroke="#ed2224" stroke-miterlimit="10" stroke-width="0.5"/>
    <path d="M1150.6,432.2s3.1-6.3,4-7.5,5.7,9.9,5.9,12.8a28.8,28.8,0,0,1,0,5" fill="none" stroke="#ed2224" stroke-miterlimit="10" stroke-width="0.5"/>
    <path d="M1149.9,456.5s5.5-8.4,7.5-11a18.7,18.7,0,0,1,8.5-5.8c2.9-.8,4.9,2.6,5,4.6s4.5,16.9,3.9,19.7" fill="none" stroke="#ed2224" stroke-miterlimit="10" stroke-width="0.5"/>
  </g>
  <path id="_06" data-name="06" d="M49.2,492.7a17.3,17.3,0,0,0-9-3.8c-5.7-.7-19.9-1.7-20.4-5.5s-13.3-18.1-2.9-33S35.2,425,37.6,420,49,408.8,49.2,401.7s4.3-3.1,5.2-1.2,3.3,7.4,8.6,10.5,22.1,15.2,24.9,20.2,15.2,19.9,11.6,31.8-6.2,16.4-9,19.2-10.2,2.8-12.1,5.7-5.2,3.6-9.5,4.8S49.2,492.7,49.2,492.7Z" fill="#ef4423"/>
  <text transform="translate(47.2 555.8)" font-size="30.33" fill="#231f20" font-family="SourceSansPro-Light, Source Sans Pro">J</text>
  <text transform="translate(912.9 555.8)" font-size="30.33" fill="#231f20" font-family="SourceSansPro-Light, Source Sans Pro">M</text>
  <text transform="translate(1133.9 555.8)" font-size="30.33" fill="#231f20" font-family="SourceSansPro-Light, Source Sans Pro">J</text>
  <text transform="translate(1351.3 555.8)" font-size="30.33" fill="#231f20" font-family="SourceSansPro-Light, Source Sans Pro">J</text>
  <text transform="translate(1567.6 555.8)" font-size="30.33" fill="#231f20" font-family="SourceSansPro-Light, Source Sans Pro">A</text>
  <text transform="translate(1785 555.8)" font-size="30.33" fill="#231f20" font-family="SourceSansPro-Light, Source Sans Pro">S</text>
  <text transform="translate(2000.4 555.8)" font-size="30.33" fill="#231f20" font-family="SourceSansPro-Light, Source Sans Pro">O</text>
  <text transform="translate(2218 555.8)" font-size="30.33" fill="#231f20" font-family="SourceSansPro-Light, Source Sans Pro">N</text>
  <text transform="translate(2435.8 555.8)" font-size="30.33" fill="#231f20" font-family="SourceSansPro-Light, Source Sans Pro">D</text>
  <text transform="translate(264.4 556.8)" font-size="30.33" fill="#231f20" font-family="SourceSansPro-Light, Source Sans Pro">F</text>
  <text transform="translate(478.2 556.8)" font-size="30.33" fill="#231f20" font-family="SourceSansPro-Light, Source Sans Pro">M</text>
  <text transform="translate(698.3 556.8)" font-size="30.33" fill="#231f20" font-family="SourceSansPro-Light, Source Sans Pro">A</text>
</svg>
